HIERARCHY
ROOT root
{
	OFFSET 0.000000 0.000000 0.000000
	CHANNELS 6 Xposition Yposition Zposition Zrotation Yrotation Xrotation
	JOINT lhip
	{
		OFFSET 0.058581 -0.082280 -0.017664
		CHANNELS 3 Zrotation Yrotation Xrotation
		JOINT lknee
		{
			OFFSET 0.043451 -0.386469 0.008037
			CHANNELS 3 Zrotation Yrotation Xrotation
			JOINT lankle
			{
				OFFSET -0.014790 -0.426874 -0.037428
				CHANNELS 3 Zrotation Yrotation Xrotation
				JOINT ltoe
				{
					OFFSET 0.041054 -0.060286 0.122042
					CHANNELS 3 Zrotation Yrotation Xrotation
					End Site
					{
						OFFSET 0.000000 0.000000 0.000000
					}
				}
			}
		}
	}
	JOINT rhip
	{
		OFFSET -0.060310 -0.090513 -0.013543
		CHANNELS 3 Zrotation Yrotation Xrotation
		JOINT rknee
		{
			OFFSET -0.043257 -0.383688 -0.004843
			CHANNELS 3 Zrotation Yrotation Xrotation
			JOINT rankle
			{
				OFFSET 0.019056 -0.420046 -0.034562
				CHANNELS 3 Zrotation Yrotation Xrotation
				JOINT rtoe
				{
					OFFSET -0.034840 -0.062106 0.130323
					CHANNELS 3 Zrotation Yrotation Xrotation
					End Site
					{
						OFFSET 0.000000 0.000000 0.000000
					}
				}
			}
		}
	}
	JOINT lowerback
	{
		OFFSET 0.004439 0.124404 -0.038385
		CHANNELS 3 Zrotation Yrotation Xrotation
		JOINT upperback
		{
			OFFSET 0.004488 0.137956 0.026820
			CHANNELS 3 Zrotation Yrotation Xrotation
			JOINT chest
			{
				OFFSET -0.002265 0.056032 0.002855
				CHANNELS 3 Zrotation Yrotation Xrotation
				JOINT lowerneck
				{
					OFFSET -0.013390 0.211636 -0.033468
					CHANNELS 3 Zrotation Yrotation Xrotation
					JOINT upperneck
					{
						OFFSET 0.010113 0.088937 0.050410
						CHANNELS 3 Zrotation Yrotation Xrotation
						End Site
						{
							OFFSET 0.000000 0.000000 0.000000
						}
					}
				}
				JOINT lclavicle
				{
					OFFSET 0.071702 0.114000 -0.018898
					CHANNELS 3 Zrotation Yrotation Xrotation
					JOINT lshoulder
					{
						OFFSET 0.122921 0.045205 -0.019046
						CHANNELS 3 Zrotation Yrotation Xrotation
						JOINT lelbow
						{
							OFFSET 0.255332 -0.015649 -0.022946
							CHANNELS 3 Zrotation Yrotation Xrotation
							JOINT lwrist
							{
								OFFSET 0.265709 0.012698 -0.007375
								CHANNELS 3 Zrotation Yrotation Xrotation
								End Site
								{
									OFFSET 0.000000 0.000000 0.000000
								}
							}
						}
					}
				}
				JOINT rclavicle
				{
					OFFSET -0.082954 0.112472 -0.023707
					CHANNELS 3 Zrotation Yrotation Xrotation
					JOINT rshoulder
					{
						OFFSET -0.113228 0.046853 -0.008472
						CHANNELS 3 Zrotation Yrotation Xrotation
						JOINT relbow
						{
							OFFSET -0.260127 -0.014369 -0.031269
							CHANNELS 3 Zrotation Yrotation Xrotation
							JOINT rwrist
							{
								OFFSET -0.269108 0.006794 -0.006027
								CHANNELS 3 Zrotation Yrotation Xrotation
								End Site
								{
									OFFSET 0.000000 0.000000 0.000000
								}
							}
						}
					}
				}
			}
		}
	}
}
MOTION
Frames: 17
Frame Time: 0.033333
0.438209 0.701905 0.978845 -87.068884 3.702287 81.857296 0.928851 -0.723800 8.913256 -4.337499 -17.823749 9.939575 5.905582 9.833428 -22.131336 0.000000 -0.000000 0.000000 1.280326 -0.367798 -18.528456 0.613770 -5.064780 22.206095 6.429534 -7.589167 -8.489683 0.000000 -0.000000 0.000000 -3.781762 -1.424138 12.438349 3.147932 -2.868724 5.966349 1.086196 -2.833493 7.168980 6.731792 2.812416 10.680170 4.384660 -3.189856 14.728319 -21.379728 5.367979 4.023911 -62.216864 -11.707273 11.225307 13.762876 -37.971559 2.515620 3.661797 -3.329879 -15.466700 22.113985 -7.488950 1.791277 65.150532 -3.154508 11.228434 -18.184594 26.470336 -3.363684 8.265378 2.276437 -10.124837 
0.417857 0.704390 0.977183 -86.759651 3.750366 81.888813 1.348784 -0.597833 10.309633 -4.468074 -18.239945 10.107691 5.790487 9.927849 -22.998451 0.000000 -0.000000 0.000000 1.659923 -0.551595 -17.039855 1.344915 -4.360106 16.733628 6.907809 -6.530274 -6.555819 0.000000 -0.000000 0.000000 -3.628767 -1.396803 11.672529 3.241947 -3.154745 6.738204 1.221322 -2.791919 7.138543 6.718296 2.635577 11.101947 4.325757 -3.275097 14.709455 -21.017081 5.013608 4.054600 -62.489798 -12.199883 11.465404 14.104613 -37.755677 2.210858 3.634123 -3.174190 -15.795082 21.950504 -7.407018 2.013510 65.168040 -3.234324 10.983629 -17.938315 25.142022 -3.297317 7.987573 2.191926 -10.198356 
0.390876 0.708387 0.974569 -86.715825 3.544785 82.066527 1.388331 -0.658558 11.571579 -4.705666 -18.269442 11.345590 5.698461 10.416412 -24.153994 0.000000 -0.000000 0.000000 2.204399 -0.905776 -15.715948 1.718431 -4.523602 15.235773 7.297918 -6.665998 -4.826965 0.000000 -0.000000 0.000000 -3.543393 -1.374101 10.678685 3.304919 -3.239907 7.042579 1.233874 -2.824516 7.143354 6.654102 2.438502 11.300421 4.187202 -3.068581 15.167338 -21.039628 5.255767 4.095913 -62.445362 -12.275724 11.208567 14.433068 -37.766827 1.861711 3.380163 -3.341049 -15.385523 22.054922 -7.776869 2.107054 64.763890 -3.576305 10.635562 -17.610946 24.379392 -3.083270 8.389225 2.130489 -9.729862 
0.369085 0.712413 0.972627 -86.621106 3.421015 82.109117 1.249097 -0.855601 11.974882 -5.040348 -18.491456 13.896604 5.456176 11.165199 -25.213374 0.000000 -0.000000 0.000000 2.801888 -0.682507 -14.285925 1.535637 -3.934187 15.513905 5.528612 -7.004354 -4.091871 0.000000 -0.000000 0.000000 -3.184091 -1.748084 10.604768 3.187687 -3.250362 6.475736 1.076043 -2.913114 7.138107 6.261132 2.348229 11.409962 3.963879 -2.280552 15.348558 -21.252153 5.909157 4.061283 -62.151849 -11.669435 10.631037 13.984783 -37.685369 2.468741 2.974095 -3.305958 -15.580060 22.219106 -8.268367 1.804061 64.365047 -3.934527 10.425785 -17.288731 24.047457 -2.578858 8.354387 2.171716 -9.492053 
0.347661 0.717046 0.972407 -87.244011 3.514265 81.725497 0.939608 -1.216156 12.403625 -5.306517 -18.457669 17.607024 5.025701 12.105774 -25.778611 0.000000 -0.000000 0.000000 3.637138 -0.257867 -13.248198 1.385195 -3.021687 16.792652 4.254461 -8.123477 -3.792934 0.000000 -0.000000 0.000000 -2.471014 -1.880241 10.489177 3.131915 -2.908802 6.627785 0.681779 -2.820235 7.363673 6.268136 2.450325 10.860600 3.532118 -1.948243 16.094639 -21.970861 6.294070 3.590758 -61.487506 -11.251631 10.357663 13.586483 -36.924580 2.852584 3.554490 -3.408065 -15.160275 22.897794 -8.375925 1.285661 63.592931 -3.845405 10.537670 -17.197556 23.702792 -3.110384 7.498218 2.174008 -9.657818 
0.326677 0.721763 0.974256 -87.953422 3.914426 81.232789 0.799449 -2.104851 12.000927 -5.987713 -17.295567 23.137256 3.580642 12.417836 -24.758731 0.000000 -0.000000 0.000000 4.642508 0.752526 -11.883422 1.438061 -2.534808 18.089832 3.598513 -8.548199 -4.798822 0.000000 -0.000000 0.000000 -1.743198 -1.909081 10.352701 3.358774 -2.762463 7.312466 0.421991 -2.651541 7.310051 6.370199 2.599780 10.663760 3.048069 -1.808257 16.320067 -22.276207 6.394307 3.246145 -61.875104 -10.438900 10.324657 14.214600 -35.960840 2.281257 2.975158 -3.203968 -14.839871 23.068090 -7.976137 0.968713 63.418696 -3.240418 10.565433 -17.602705 23.053982 -3.782306 7.377757 2.047924 -10.361813 
0.307676 0.726934 0.976714 -88.621264 4.118978 81.324802 0.946530 -3.103754 8.739486 -7.884715 -14.512103 31.850739 2.650035 10.992986 -21.668654 0.000000 -0.000000 0.000000 5.347057 0.771444 -10.422690 1.709592 -2.286942 17.852999 2.581287 -8.011130 -6.301539 0.000000 -0.000000 0.000000 -1.232823 -1.522814 10.162580 3.626841 -3.052144 7.145045 0.325321 -2.460056 7.198962 6.012915 2.749427 11.263151 2.940956 -1.535010 16.528110 -22.205074 6.393875 3.684450 -62.767013 -9.496722 10.029071 14.673130 -34.766561 2.333073 2.501298 -2.831728 -15.299164 22.924234 -7.681030 1.327566 63.512585 -2.567612 10.280018 -18.389601 23.754764 -3.602711 7.382293 1.859858 -11.623036 
0.288299 0.732079 0.979617 -89.776909 3.911032 80.742835 1.303429 -3.644162 4.759733 -10.262666 -10.294627 41.981729 0.315220 9.150348 -15.215065 0.000000 -0.000000 0.000000 5.672276 0.046339 -7.688739 1.978134 -1.768724 16.661561 1.210113 -6.739435 -7.272093 0.000000 -0.000000 0.000000 -0.980777 -0.329138 10.460257 3.838180 -3.344759 7.604286 0.179644 -2.164378 6.868923 5.577854 2.931239 11.419344 3.074283 -1.224602 16.389054 -22.256969 6.329443 3.532364 -63.063268 -8.194451 9.939831 14.129574 -34.100791 3.298774 1.682989 -2.328776 -15.770897 22.881013 -7.435625 1.425170 63.255421 -1.838082 10.009190 -18.409716 24.798317 -2.792819 7.571281 1.779590 -12.583176 
0.271565 0.737054 0.980868 -90.495020 3.896791 80.212923 2.566564 -3.810275 -0.887422 -11.609572 -5.372832 52.619606 -2.363055 7.037431 -9.673109 0.000000 -0.000000 0.000000 5.920253 -0.505648 -5.227149 2.332836 -1.720976 15.549658 0.044034 -5.768514 -8.078852 0.000000 -0.000000 0.000000 -0.412726 0.806014 11.439934 4.103764 -3.499262 7.501508 -0.058654 -1.934105 6.371171 5.125972 2.714843 11.128425 3.342826 -1.182808 16.401777 -22.519361 6.134166 3.747398 -62.704044 -7.017593 9.512625 13.094078 -34.399037 4.902899 -0.187445 -2.114178 -15.333285 22.972417 -7.539351 1.625678 62.810024 -1.518579 9.404371 -18.814233 27.379592 -2.390719 8.449289 2.389247 -12.988934 
0.254036 0.740802 0.981502 -92.077699 3.435128 79.165501 3.247122 -3.572931 -5.537806 -11.162716 -0.035019 61.297168 -0.148162 8.645696 -12.541849 0.000000 -0.000000 0.000000 5.717095 -1.195759 -2.712132 2.663784 -0.118345 15.423622 -0.086280 -5.069154 -9.332356 0.000000 -0.000000 0.000000 -0.290634 2.376330 12.409979 4.138385 -3.284017 7.605401 -0.157005 -1.531643 6.509205 5.052086 2.666649 10.726836 3.403621 -0.546354 16.137878 -22.981596 5.622779 3.845433 -62.169467 -5.802671 9.133425 12.179724 -34.951147 5.988482 0.034405 -2.196804 -14.791232 23.075980 -6.704021 1.794722 61.946912 -1.005826 9.490344 -18.573757 29.667632 -2.197245 8.168852 2.741914 -13.295386 
0.238928 0.743648 0.982404 -93.369461 2.899232 78.356335 4.061979 -4.008597 -10.992017 -8.663706 5.127204 69.303902 1.890017 11.083933 -15.860300 0.000000 -0.000000 0.000000 5.488631 -1.330816 -0.549599 2.514601 0.911108 15.091656 -0.086745 -4.749746 -10.298070 0.000000 -0.000000 0.000000 -0.444520 3.771109 13.509329 4.201938 -3.163130 7.387937 -0.098730 -1.112957 6.816902 5.057054 2.240864 10.456013 3.359542 -0.458035 16.447676 -23.287289 5.582628 3.655152 -62.404309 -5.256060 8.875567 11.811666 -34.607109 6.633330 0.630483 -2.322269 -14.264572 23.227666 -6.006911 1.667538 61.047326 0.265975 9.783225 -18.442645 30.996914 -2.155404 7.484660 2.698634 -13.264598 
0.224966 0.745871 0.983796 -94.089822 2.329885 78.153598 4.995129 -4.867123 -17.356878 -7.449163 8.196595 75.549851 3.174891 11.274181 -19.359103 0.000000 -0.000000 0.000000 5.213758 -1.519610 0.839852 2.135846 1.650930 14.735526 0.240371 -4.281308 -11.090329 0.000000 -0.000000 0.000000 -0.940827 5.076246 14.177174 4.341912 -3.358796 6.803178 0.114948 -0.766821 7.260634 5.084570 2.190943 10.899051 3.646667 -0.288649 15.957686 -23.161951 5.827505 3.464392 -63.384319 -4.865653 8.850877 11.775915 -33.968558 6.945054 1.379876 -1.686713 -14.925907 23.013711 -5.591775 1.297245 60.944361 1.975891 10.112353 -18.632042 31.289138 -1.972130 6.224653 2.252799 -13.223720 
0.210807 0.746261 0.984937 -94.526739 1.338308 78.248401 5.820399 -7.151724 -23.822759 -5.956850 11.672255 79.657999 3.084090 9.928314 -21.969971 0.000000 -0.000000 0.000000 4.353499 -0.685925 2.427782 2.286474 3.269105 13.561731 0.363893 -5.923158 -11.267990 0.000000 -0.000000 0.000000 -1.749169 6.456091 13.905643 4.158759 -4.005666 7.974295 0.527527 -0.560015 6.168967 4.009003 1.231277 10.715912 4.559305 0.428548 17.844521 -22.513628 4.829932 4.490612 -65.525202 -4.238410 5.829260 12.776879 -33.171893 5.269624 -0.510728 -2.737647 -10.905280 21.796071 -3.652626 2.145332 62.021053 2.816969 8.610853 -19.963563 32.307482 -3.600657 8.938113 2.070182 -12.521952 
0.196818 0.747173 0.986020 -95.327066 0.548279 78.247496 6.961227 -7.852090 -29.670944 -5.722459 13.451488 81.200932 3.688898 9.866704 -23.660498 0.000000 -0.000000 0.000000 3.701160 -0.769370 3.404885 1.969907 4.103870 13.669666 0.622202 -5.499599 -12.155104 0.000000 -0.000000 0.000000 -2.142531 7.981944 14.096341 4.166359 -3.993546 7.753055 0.457534 -0.282182 6.409938 4.124603 1.220406 10.559641 4.526550 -0.106220 18.170847 -22.368205 4.487044 4.758341 -65.928878 -4.021037 5.685671 12.521247 -32.416680 5.790648 -0.452762 -2.762711 -11.042116 21.631221 -3.163530 2.362076 62.482840 4.158962 8.608945 -21.194902 32.900038 -4.218606 8.739730 2.010379 -12.939454 
0.181630 0.747770 0.986701 -95.847897 0.086656 77.994599 8.072273 -7.866948 -34.554193 -5.262278 14.088623 80.683955 4.340841 9.331653 -24.759510 0.000000 -0.000000 0.000000 3.183754 -1.699157 5.268478 1.709343 5.354256 12.832452 0.237894 -5.106246 -12.803005 0.000000 -0.000000 0.000000 -1.973073 9.009684 15.029402 3.881404 -4.045179 6.861492 0.343723 -0.040363 6.538261 3.807040 1.086949 10.772044 4.759809 -0.218520 18.354002 -22.437005 4.515131 4.986986 -65.925586 -3.322739 5.137264 12.132283 -32.109139 7.319125 -0.787913 -2.896668 -11.042196 21.375964 -2.675892 2.599448 62.839684 5.070071 8.253354 -21.649864 33.909199 -4.165987 9.097110 2.261658 -13.491641 
0.167040 0.748637 0.986777 -96.653058 -0.180596 77.797526 9.318666 -7.205216 -38.172488 -4.658269 14.436763 77.784357 4.064507 9.264761 -25.114965 0.000000 -0.000000 0.000000 2.874572 -2.266601 6.832252 1.583358 6.449064 12.390032 -0.239913 -4.652734 -13.827999 0.000000 -0.000000 0.000000 -1.987299 9.756290 15.504218 3.649555 -3.926909 6.873940 0.338300 0.361590 6.616136 3.667763 1.359861 10.519724 4.940336 -0.563766 18.318350 -22.663112 4.486230 4.794107 -65.878825 -2.696803 4.817864 12.312035 -31.943679 7.579289 -0.747482 -2.629770 -10.991751 21.297814 -1.856997 2.716912 62.737804 6.106920 8.290676 -21.374923 34.732050 -4.085078 8.103091 2.443232 -14.273252 
0.152174 0.748833 0.986144 -97.341387 -0.586008 77.966475 10.363952 -6.875875 -40.801981 -4.404008 14.983675 72.944619 4.352649 9.619345 -24.686486 0.000000 -0.000000 0.000000 2.321572 -2.242322 7.822687 1.665463 7.368614 12.389175 -0.396966 -4.734442 -14.992123 0.000000 -0.000000 0.000000 -2.217424 10.327523 15.524515 3.349925 -3.699184 6.894396 0.266538 0.781107 6.634331 3.695721 1.785305 10.123732 4.922483 -0.741225 18.631850 -22.527718 4.952145 3.952185 -65.943880 -2.199933 4.933813 12.073105 -31.083887 8.052846 -0.197176 -2.507512 -11.362944 21.321490 -1.560740 2.604531 62.526594 7.053317 8.937553 -20.867179 35.506511 -3.003536 8.069385 2.566686 -14.211083 
